HIERARCHY
ROOT Hips
{
    OFFSET 0.000000 0.000000 0.000000
    CHANNELS 6 Xposition Yposition Zposition Zrotation Xrotation Yrotation
    JOINT Spine
    {
        OFFSET -0.000008 7.848626 0.000026
        CHANNELS 3 Zrotation Xrotation Yrotation
        JOINT Spine1
        {
            OFFSET 0.000013 20.903070 -0.000033
            CHANNELS 3 Zrotation Xrotation Yrotation
            JOINT Neck
            {
                OFFSET 0.000003 22.292706 -0.000011
                CHANNELS 3 Zrotation Xrotation Yrotation
                JOINT Head
                {
                    OFFSET 0.000001 14.279130 1.902220
                    CHANNELS 3 Zrotation Xrotation Yrotation
                    End Site
                    {
                        OFFSET 0.000000 19.022141 0.000000
                    }
                }
            }
            JOINT LeftShoulder
            {
                OFFSET 3.797834 16.121201 -0.677306
                CHANNELS 3 Zrotation Xrotation Yrotation
                JOINT LeftArm
                {
                    OFFSET 11.576589 -0.000004 -0.000014
                    CHANNELS 3 Zrotation Xrotation Yrotation
                    JOINT LeftForeArm
                    {
                        OFFSET 29.906410 0.000012 0.000004
                        CHANNELS 3 Zrotation Xrotation Yrotation
                        JOINT LeftHand
                        {
                            OFFSET 24.318316 0.000004 0.000004
                            CHANNELS 3 Zrotation Xrotation Yrotation
                            JOINT LeftHandThumb1
                            {
                                OFFSET 1.987815 -2.258876 3.162452
                                CHANNELS 3 Zrotation Xrotation Yrotation
                                JOINT LeftHandThumb2
                                {
                                    OFFSET 3.002299 0.000005 0.000005
                                    CHANNELS 3 Zrotation Xrotation Yrotation
                                    JOINT LeftHandThumb3
                                    {
                                        OFFSET 2.566085 0.000018 0.000012
                                        CHANNELS 3 Zrotation Xrotation Yrotation
                                        End Site
                                        {
                                            OFFSET 2.440626 0.000000 0.000000
                                        }
                                    }
                                }
                            }
                            JOINT LeftHandIndex1
                            {
                                OFFSET 8.131962 0.000001 3.162428
                                CHANNELS 3 Zrotation Xrotation Yrotation
                                JOINT LeftHandIndex2
                                {
                                    OFFSET 4.517756 -0.000002 -0.000008
                                    CHANNELS 3 Zrotation Xrotation Yrotation
                                    JOINT LeftHandIndex3
                                    {
                                        OFFSET 2.258878 0.000006 0.000019
                                        CHANNELS 3 Zrotation Xrotation Yrotation
                                        End Site
                                        {
                                            OFFSET 2.148437 0.000000 0.000000
                                        }
                                    }
                                }
                            }
                            JOINT LeftHandMiddle1
                            {
                                OFFSET 8.131961 0.000003 1.048141
                                CHANNELS 3 Zrotation Xrotation Yrotation
                                JOINT LeftHandMiddle2
                                {
                                    OFFSET 4.969536 -0.000001 -0.000014
                                    CHANNELS 3 Zrotation Xrotation Yrotation
                                    JOINT LeftHandMiddle3
                                    {
                                        OFFSET 2.710657 0.000001 0.000014
                                        CHANNELS 3 Zrotation Xrotation Yrotation
                                        End Site
                                        {
                                            OFFSET 2.578118 0.000000 0.000000
                                        }
                                    }
                                }
                            }
                            JOINT LeftHandRing1
                            {
                                OFFSET 7.680184 0.000003 -1.048099
                                CHANNELS 3 Zrotation Xrotation Yrotation
                                JOINT LeftHandRing2
                                {
                                    OFFSET 4.517756 -0.000001 -0.000008
                                    CHANNELS 3 Zrotation Xrotation Yrotation
                                    JOINT LeftHandRing3
                                    {
                                        OFFSET 2.258878 0.000002 0.000020
                                        CHANNELS 3 Zrotation Xrotation Yrotation
                                        End Site
                                        {
                                            OFFSET 2.148437 0.000000 0.000000
                                        }
                                    }
                                }
                            }
                            JOINT LeftHandPinky1
                            {
                                OFFSET 7.228410 0.000000 -3.162428
                                CHANNELS 3 Zrotation Xrotation Yrotation
                                JOINT LeftHandPinky2
                                {
                                    OFFSET 3.614204 0.000001 0.000003
                                    CHANNELS 3 Zrotation Xrotation Yrotation
                                    JOINT LeftHandPinky3
                                    {
                                        OFFSET 1.807105 0.000001 -0.000022
                                        CHANNELS 3 Zrotation Xrotation Yrotation
                                        End Site
                                        {
                                            OFFSET 1.718745 0.000000 0.000000
                                        }
                                    }
                                }
                            }
                        }
                    }
                }
            }
            JOINT RightShoulder
            {
                OFFSET -3.797835 16.121204 -0.677282
                CHANNELS 3 Zrotation Xrotation Yrotation
                JOINT RightArm
                {
                    OFFSET -11.576581 -0.000004 -0.000002
                    CHANNELS 3 Zrotation Xrotation Yrotation
                    JOINT RightForeArm
                    {
                        OFFSET -29.906410 0.000012 0.000015
                        CHANNELS 3 Zrotation Xrotation Yrotation
                        JOINT RightHand
                        {
                            OFFSET -24.318323 0.000011 0.000001
                            CHANNELS 3 Zrotation Xrotation Yrotation
                            JOINT RightHandThumb1
                            {
                                OFFSET -1.987803 -2.258880 3.162433
                                CHANNELS 3 Zrotation Xrotation Yrotation
                                JOINT RightHandThumb2
                                {
                                    OFFSET -3.002280 0.000010 0.000002
                                    CHANNELS 3 Zrotation Xrotation Yrotation
                                    JOINT RightHandThumb3
                                    {
                                        OFFSET -2.566098 -0.000006 0.000001
                                        CHANNELS 3 Zrotation Xrotation Yrotation
                                        End Site
                                        {
                                            OFFSET -2.440626 0.000000 0.000000
                                        }
                                    }
                                }
                            }
                            JOINT RightHandIndex1
                            {
                                OFFSET -8.131983 -0.000002 3.162433
                                CHANNELS 3 Zrotation Xrotation Yrotation
                                JOINT RightHandIndex2
                                {
                                    OFFSET -4.517781 -0.000002 -0.000004
                                    CHANNELS 3 Zrotation Xrotation Yrotation
                                    JOINT RightHandIndex3
                                    {
                                        OFFSET -2.258867 -0.000001 0.000000
                                        CHANNELS 3 Zrotation Xrotation Yrotation
                                        End Site
                                        {
                                            OFFSET -2.148437 0.000000 0.000000
                                        }
                                    }
                                }
                            }
                            JOINT RightHandMiddle1
                            {
                                OFFSET -8.131975 -0.000004 1.048119
                                CHANNELS 3 Zrotation Xrotation Yrotation
                                JOINT RightHandMiddle2
                                {
                                    OFFSET -4.969537 0.000003 0.000004
                                    CHANNELS 3 Zrotation Xrotation Yrotation
                                    JOINT RightHandMiddle3
                                    {
                                        OFFSET -2.710670 0.000003 0.000004
                                        CHANNELS 3 Zrotation Xrotation Yrotation
                                        End Site
                                        {
                                            OFFSET -2.578118 0.000000 0.000000
                                        }
                                    }
                                }
                            }
                            JOINT RightHandRing1
                            {
                                OFFSET -7.680190 -0.000004 -1.048120
                                CHANNELS 3 Zrotation Xrotation Yrotation
                                JOINT RightHandRing2
                                {
                                    OFFSET -4.517781 -0.000002 -0.000003
                                    CHANNELS 3 Zrotation Xrotation Yrotation
                                    JOINT RightHandRing3
                                    {
                                        OFFSET -2.258867 -0.000000 0.000000
                                        CHANNELS 3 Zrotation Xrotation Yrotation
                                        End Site
                                        {
                                            OFFSET -2.148437 0.000000 0.000000
                                        }
                                    }
                                }
                            }
                            JOINT RightHandPinky1
                            {
                                OFFSET -7.228427 -0.000003 -3.162433
                                CHANNELS 3 Zrotation Xrotation Yrotation
                                JOINT RightHandPinky2
                                {
                                    OFFSET -3.614225 -0.000003 -0.000004
                                    CHANNELS 3 Zrotation Xrotation Yrotation
                                    JOINT RightHandPinky3
                                    {
                                        OFFSET -1.807113 0.000001 0.000003
                                        CHANNELS 3 Zrotation Xrotation Yrotation
                                        End Site
                                        {
                                            OFFSET -1.718745 0.000000 0.000000
                                        }
                                    }
                                }
                            }
                        }
                    }
                }
            }
        }
    }
    JOINT LeftUpLeg
    {
        OFFSET 9.511071 0.000001 -0.000012
        CHANNELS 3 Zrotation Xrotation Yrotation
        JOINT LeftLeg
        {
            OFFSET 0.000005 -43.875633 -0.000009
            CHANNELS 3 Zrotation Xrotation Yrotation
            JOINT LeftFoot
            {
                OFFSET 0.000003 -35.354156 -0.000004
                CHANNELS 3 Zrotation Xrotation Yrotation
                JOINT LeftToeBase
                {
                    OFFSET -0.000001 -6.182192 14.266607
                    CHANNELS 3 Zrotation Xrotation Yrotation
                    End Site
                    {
                        OFFSET 0.000000 0.000000 3.804428
                    }
                }
            }
        }
    }
    JOINT RightUpLeg
    {
        OFFSET -9.511071 -0.000001 0.000012
        CHANNELS 3 Zrotation Xrotation Yrotation
        JOINT RightLeg
        {
            OFFSET 0.000000 -43.875633 -0.000009
            CHANNELS 3 Zrotation Xrotation Yrotation
            JOINT RightFoot
            {
                OFFSET 0.000001 -35.354160 -0.000016
                CHANNELS 3 Zrotation Xrotation Yrotation
                JOINT RightToeBase
                {
                    OFFSET -0.000000 -6.182191 14.266625
                    CHANNELS 3 Zrotation Xrotation Yrotation
                    End Site
                    {
                        OFFSET 0.000000 0.000000 3.804428
                    }
                }
            }
        }
    }
}
MOTION
Frames:    5
Frame Time:    0.002778
36.270985    92.404800    586.944946    4.612405    -0.428319    -146.702942    -0.485617    2.692138    -0.735222    -2.428083    2.689821    -0.644013    3.565061    10.953588    -17.273224    3.565062    10.953585    -17.273226    1.830544    -3.493524    2.686273    -65.594490    5.401494    -22.452641    -92.458801    -26.356972    -80.627434    30.142565    -2.444868    -2.369389    47.448196    38.866428    -34.355030    -35.000000    -0.000001    0.000003    -0.000000    0.000000    -0.000000    -0.000001    10.000000    0.000007    -0.000000    0.000000    -0.000000    -0.000000    0.000000    -0.000000    -0.000000    0.000000    -0.000000    -0.000000    0.000000    -0.000000    -0.000000    0.000000    -0.000000    -0.000000    0.000000    -0.000000    -0.000000    0.000000    -0.000000    -0.000000    0.000000    -0.000000    -0.000002    -10.000000    -0.000000    -0.000000    0.000000    -0.000000    -0.000000    0.000000    -0.000000    -5.315407    -0.203828    -0.170919    61.988972    -0.120206    5.038476    -11.841861    25.973566    99.576889    -51.212387    20.376379    -15.528279    -47.448219    38.866428    34.355038    34.999996    0.000001    0.000004    -0.000000    0.000000    -0.000000    -0.000001    9.999997    0.000008    -0.000000    0.000000    -0.000000    -0.000000    0.000000    -0.000000    -0.000000    0.000000    -0.000000    -0.000000    0.000000    -0.000000    -0.000000    0.000000    -0.000000    -0.000000    0.000000    -0.000000    -0.000000    0.000000    -0.000000    -0.000000    0.000000    -0.000000    0.000004    -10.000001    0.000006    -0.000000    0.000000    -0.000000    -0.000000    0.000000    -0.000000    20.021484    -11.747721    -1.046615    -0.000000    8.683358    0.000003    -14.102948    -1.539361    -8.358136    0.000000    -1.128801    0.000002    -8.269198    -8.622373    -0.853128    -0.000002    29.482780    0.000005    17.361475    -18.602736    -24.165018    0.000000    -3.256529    0.000000    
36.290054    92.405342    586.967346    4.634718    -0.460598    -146.847672    -0.485337    2.698813    -0.773806    -2.426686    2.696493    -0.682425    3.561900    10.960813    -17.235313    3.561902    10.960810    -17.235313    1.857440    -3.465521    2.696125    -65.692490    5.614909    -22.561262    -92.413597    -26.525644    -80.638458    29.817085    -2.402605    -2.334129    47.448208    38.866432    -34.355022    -35.000008    -0.000006    0.000009    -0.000000    0.000000    -0.000000    -0.000001    9.999998    -0.000003    -0.000000    0.000000    -0.000000    -0.000000    0.000000    -0.000000    -0.000000    0.000000    -0.000000    -0.000000    0.000000    -0.000000    -0.000000    0.000000    -0.000000    -0.000000    0.000000    -0.000000    -0.000000    0.000000    -0.000000    -0.000000    0.000000    -0.000000    -0.000001    -10.000001    -0.000004    -0.000000    0.000000    -0.000000    -0.000000    0.000000    -0.000000    -5.302298    -0.182258    -0.171454    61.963844    -0.056928    5.201815    -11.797569    26.003033    99.460075    -51.172028    20.281385    -15.483077    -47.448212    38.866440    34.355026    35.000000    -0.000001    0.000003    -0.000000    0.000000    -0.000000    0.000002    10.000004    0.000001    -0.000000    0.000000    -0.000000    -0.000000    0.000000    -0.000000    -0.000000    0.000000    -0.000000    -0.000000    0.000000    -0.000000    -0.000000    0.000000    -0.000000    -0.000000    0.000000    -0.000000    -0.000000    0.000000    -0.000000    -0.000000    0.000000    -0.000000    0.000002    -9.999999    -0.000002    -0.000000    0.000000    -0.000000    -0.000000    0.000000    -0.000000    20.045759    -11.748447    -1.045192    0.000002    8.704890    -0.000006    -14.102789    -1.573734    -8.225245    0.000000    -1.114464    0.000001    -8.274514    -8.730331    -0.862220    -0.000002    29.500891    0.000001    17.330107    -18.529634    -24.048649    -0.000000    -3.260077    -0.000000    
36.309483    92.406715    586.989380    4.656869    -0.489753    -146.991394    -0.484878    2.707190    -0.812919    -2.424394    2.704868    -0.721339    3.558432    10.968177    -17.196718    3.558430    10.968178    -17.196709    1.876639    -3.437565    2.698744    -65.789627    5.800515    -22.663319    -92.441574    -26.709391    -80.671265    29.481258    -2.348724    -2.276954    47.448212    38.866440    -34.355030    -35.000000    0.000004    -0.000002    -0.000000    0.000000    -0.000000    0.000002    10.000001    -0.000007    -0.000000    0.000000    -0.000000    -0.000000    0.000000    -0.000000    -0.000000    0.000000    -0.000000    -0.000000    0.000000    -0.000000    -0.000000    0.000000    -0.000000    -0.000000    0.000000    -0.000000    -0.000000    0.000000    -0.000000    -0.000000    0.000000    -0.000000    0.000002    -9.999996    0.000000    -0.000000    0.000000    -0.000000    -0.000000    0.000000    -0.000000    -5.286551    -0.166322    -0.174771    61.937412    -0.003834    5.355547    -11.758767    26.029280    99.347115    -51.102528    20.185232    -15.452137    -47.448212    38.866440    34.355030    34.999992    0.000000    0.000005    -0.000000    0.000000    -0.000000    0.000001    9.999998    0.000002    -0.000000    0.000000    -0.000000    -0.000000    0.000000    -0.000000    -0.000000    0.000000    -0.000000    -0.000000    0.000000    -0.000000    -0.000000    0.000000    -0.000000    -0.000000    0.000000    -0.000000    -0.000000    0.000000    -0.000000    -0.000000    0.000000    -0.000000    -0.000001    -10.000002    -0.000002    -0.000000    0.000000    -0.000000    -0.000000    0.000000    -0.000000    20.071692    -11.746666    -1.031063    0.000002    8.727315    0.000001    -14.107849    -1.617595    -8.089049    0.000000    -1.100550    -0.000004    -8.276620    -8.831998    -0.867910    0.000001    29.512659    -0.000002    17.299906    -18.460627    -23.937225    -0.000000    -3.257624    -0.000000    
36.325958    92.406227    587.017761    4.676347    -0.519637    -147.129562    -0.483904    2.719862    -0.852162    -2.419519    2.717538    -0.760350    3.555576    10.969821    -17.151142    3.555580    10.969818    -17.151154    1.889074    -3.414674    2.689636    -65.878708    5.972383    -22.765968    -92.396324    -26.920240    -80.689438    29.123222    -2.287223    -2.208043    47.448204    38.866417    -34.355030    -35.000000    -0.000009    -0.000006    -0.000000    0.000000    -0.000000    -0.000003    9.999999    0.000000    -0.000000    0.000000    -0.000000    -0.000000    0.000000    -0.000000    -0.000000    0.000000    -0.000000    -0.000000    0.000000    -0.000000    -0.000000    0.000000    -0.000000    -0.000000    0.000000    -0.000000    -0.000000    0.000000    -0.000000    -0.000000    0.000000    -0.000000    0.000000    -9.999999    0.000003    -0.000000    0.000000    -0.000000    -0.000000    0.000000    -0.000000    -5.280138    -0.156874    -0.175926    61.908173    0.040423    5.501617    -11.718307    26.055130    99.228119    -51.055012    20.092796    -15.411916    -47.448204    38.866421    34.355030    34.999996    0.000006    -0.000006    -0.000000    0.000000    -0.000000    0.000005    10.000003    0.000008    -0.000000    0.000000    -0.000000    -0.000000    0.000000    -0.000000    -0.000000    0.000000    -0.000000    -0.000000    0.000000    -0.000000    -0.000000    0.000000    -0.000000    -0.000000    0.000000    -0.000000    -0.000000    0.000000    -0.000000    -0.000000    0.000000    -0.000000    0.000002    -9.999997    0.000001    -0.000000    0.000000    -0.000000    -0.000000    0.000000    -0.000000    20.091221    -11.750663    -1.031774    0.000000    8.752442    -0.000002    -14.124918    -1.659074    -7.954359    -0.000000    -1.086354    -0.000001    -8.285782    -8.934616    -0.876008    0.000002    29.526949    -0.000004    17.267796    -18.392330    -23.828228    -0.000000    -3.249526    -0.000000    
36.342171    92.407730    587.036499    4.685051    -0.532700    -147.242813    -0.483068    2.740977    -0.894240    -2.415337    2.738642    -0.801861    3.551845    10.974768    -17.119123    3.551846    10.974771    -17.119127    1.850712    -3.423311    2.590154    -65.912003    6.080141    -22.799112    -92.395996    -27.066540    -80.697968    28.977064    -2.282418    -2.215437    47.448204    38.866413    -34.355011    -35.000000    0.000002    -0.000007    -0.000000    0.000000    -0.000000    0.000000    10.000004    -0.000003    -0.000000    0.000000    -0.000000    -0.000000    0.000000    -0.000000    -0.000000    0.000000    -0.000000    -0.000000    0.000000    -0.000000    -0.000000    0.000000    -0.000000    -0.000000    0.000000    -0.000000    -0.000000    0.000000    -0.000000    -0.000000    0.000000    -0.000000    0.000000    -10.000000    0.000000    -0.000000    0.000000    -0.000000    -0.000000    0.000000    -0.000000    -5.262639    -0.204220    -0.150190    61.883995    0.078192    5.557045    -11.687986    26.069782    99.151276    -51.019756    20.041624    -15.394299    -47.448212    38.866432    34.355034    35.000000    -0.000003    0.000005    -0.000000    0.000000    -0.000000    -0.000004    10.000000    -0.000004    -0.000000    0.000000    -0.000000    -0.000000    0.000000    -0.000000    -0.000000    0.000000    -0.000000    -0.000000    0.000000    -0.000000    -0.000000    0.000000    -0.000000    -0.000000    0.000000    -0.000000    -0.000000    0.000000    -0.000000    -0.000000    0.000000    -0.000000    -0.000001    -10.000000    0.000006    -0.000000    0.000000    -0.000000    -0.000000    0.000000    -0.000000    20.108831    -11.742625    -1.010428    0.000002    8.775263    0.000001    -14.106457    -1.669430    -7.877425    -0.000000    -1.093022    -0.000000    -8.284417    -8.988204    -0.852649    0.000001    29.509630    -0.000001    17.273319    -18.356485    -23.761822    0.000000    -3.244795    -0.000000    
